# xmcd
#
# Track frame offsets:
#	150
#	4239
#	28314
#	46198
#	56714
#	72453
#	89520
#	100519
#	107012
#	124634
#	138173
#	151022
#	165223
#	178877
#	192664
#	210438
#	225403
#	240914
#	250679
#	266853
#	277600
#	291411
#	306225
#	318604
#	332852
#	346955
#
# Disc length: 4724 seconds
#
# Revision: 0
# Processed by: cddbd v1.5.2PL0 Copyright (c) Steve Scherf et al.
# Submitted via: EasyCDDAExtractor 10.0.1.1
#
DISCID=6e12721a
DTITLE=Various Artist - Talents fachés
DYEAR=2006
DGENRE=Rap
TTITLE0=Intro - Talents fachés
TTITLE1=Rohff - C'est comme ca
TTITLE2=Smoker - Lève le poing
TTITLE3=Princess anies - Femme 2 l'ombre
TTITLE4=Kazkami et ritmo de la noche - Si t'as pas la dale
TTITLE5=Alain 2 l'ombre and ikbal vockal - La rime pour la rue
TTITLE6=Shanice - Rève
TTITLE7=Nubi - Nubi du 9.1
TTITLE8=Ness beal and zessau - Un featuring avec la haine
TTITLE9=La fouine - Il en faut
TTITLE10=Bakar - La routine
TTITLE11=B.O. digital - Ma music est hardcore
TTITLE12=Medine - Tete froide
TTITLE13=Larsen - Je sors du...
TTITLE14=Rappeur d'instinct - Fair la diff
TTITLE15=Jpax - J'etais l
TTITLE16=LIM - Vol a l'arrache
TTITLE17=Alibi Montana and Kheimer - Préviens tout le monde
TTITLE18=Nysay - Que du mito
TTITLE19=Raven - Le circuit
TTITLE20=Tepa and Box-Office - Tepa and Box-Office-Tiens ta langue
TTITLE21=Ol'kainry and UDR - Ol'Kainry and UDR-Le point de non-retour
TTITLE22=Sultan - Sultan-Mon peura arrache tout
TTITLE23=Dossey - Dossey-Banlieusard de province
TTITLE24=Youssoupha and S;pi - Youssoupha and S.PI-Un singe en hivers
TTITLE25=Outro - Talents faches
EXTD=
EXTT0=
EXTT1=
EXTT2=
EXTT3=
EXTT4=
EXTT5=
EXTT6=
EXTT7=
EXTT8=
EXTT9=
EXTT10=
EXTT11=
EXTT12=
EXTT13=
EXTT14=
EXTT15=
EXTT16=
EXTT17=
EXTT18=
EXTT19=
EXTT20=
EXTT21=
EXTT22=
EXTT23=
EXTT24=
EXTT25=
PLAYORDER=
